<?xml version="1.0" ?><svg viewBox="0 0 60 60" xmlns="http://www.w3.org/2000/svg"><title/><g id="colour"><rect fill="#d32f2e" height="10" width="9" x="25" y="41"/><path d="M53,37H49.77344c-1.29476-3.658-3.59654-6.28268-6.35052-7.20237a.46388.46388,0,0,0-.16439-.031c-.93507,0-3.79178,0-4.67549-1.77737a.51219.51219,0,0,0-.65767-.248,7.48636,7.48636,0,0,1-6.97727-.84734,5.28723,5.28723,0,0,1-2.58953-3.844.525.525,0,0,0-.24661-.44433.51417.51417,0,0,0-.50351-.01034,8.16037,8.16037,0,0,1-3.874.97134,8.78334,8.78334,0,1,1,8.73446-9.765.51508.51508,0,0,0,.21582.36164.4655.4655,0,0,0,.40071.093c4.83994-.98168,7.67608.91968,8.642,5.797a.51761.51761,0,0,0,.50351.41336,4.64409,4.64409,0,0,1,4.62412,4.65.49619.49619,0,0,0,.20553.4133C50.74959,28.30963,52.79453,33.76566,53,37Z" fill="#e0e0e0"/><path d="M22.73444,8a8.76269,8.76269,0,0,1,8.7345,7.80164.51476.51476,0,0,0,.21582.36163.46536.46536,0,0,0,.4007.093c4.8399-.98163,7.67609.91968,8.642,5.797a.51764.51764,0,0,0,.50354.41339,4.64408,4.64408,0,0,1,4.62415,4.65.49614.49614,0,0,0,.20551.41333C49.06482,29.79364,50.978,33.83173,51.696,37H53c-.20544-3.23437-2.25043-8.69037-5.93939-11.47a.49614.49614,0,0,1-.20551-.41333,4.64408,4.64408,0,0,0-4.62415-4.65.51764.51764,0,0,1-.50354-.41339c-.96588-4.87732-3.80206-6.77863-8.642-5.797a.46536.46536,0,0,1-.4007-.093.51476.51476,0,0,1-.21582-.36163A8.75261,8.75261,0,0,0,15.5105,11.85089,8.71516,8.71516,0,0,1,22.73444,8Z" fill="#f9f9f9"/><rect fill="#3a3a3a" height="10" width="4" x="43" y="41"/><rect fill="#3a3a3a" height="10" width="8" x="47" y="41"/><polygon fill="#3f3f3f" points="44.333 43 45.667 43 55 43 55 41 43 41 43 43 44.333 43"/><path d="M13,37V50.81763A4.80251,4.80251,0,0,0,8.6909,55H4.27273V44.94118A3.746,3.746,0,0,0,1,41.27762V37Z" fill="#d32f2e"/><polygon fill="#ce4141" points="2 39 3 39 13 39 13 37 1 37 1 39 2 39"/><rect fill="#d32f2e" height="10" width="9" x="34" y="41"/><rect fill="#d32f2e" height="11" width="12" x="13" y="40"/><polygon fill="#ce4141" points="27 43 29 43 43 43 43 41 25 41 25 43 27 43"/><polygon fill="#ce4141" points="14 42 15 42 25 42 25 40 13 40 13 42 14 42"/><path d="M51,37c-1.26067-3.65808-4.66988-8.28271-7.35137-9.20239a.44094.44094,0,0,0-.16-.03094c-.91045,0-3.692,0-4.55244-1.7774a.49331.49331,0,0,0-.64041-.248,7.13279,7.13279,0,0,1-6.79362-.84729,5.29891,5.29891,0,0,1-2.52139-3.844.52845.52845,0,0,0-.24009-.44434.48923.48923,0,0,0-.49029-.01031,7.77987,7.77987,0,0,1-3.77208.97131,8.65311,8.65311,0,0,1-8.50458-8.78333,8.991,8.991,0,0,1,.49706-2.93243A8.93748,8.93748,0,0,0,15,14.78333a8.65311,8.65311,0,0,0,8.50458,8.78333,7.77987,7.77987,0,0,0,3.77208-.97131.48923.48923,0,0,1,.49029.01031A.52845.52845,0,0,1,28.007,23.05a5.29891,5.29891,0,0,0,2.52139,3.844,7.13279,7.13279,0,0,0,6.79362.84729.49331.49331,0,0,1,.64041.248c.86041,1.7774,3.642,1.7774,4.55244,1.7774a.44094.44094,0,0,1,.16.03094c2.68149.91968,4.92274,3.54431,6.18341,7.20239H52c-.03714-.6004.15933.72217,0,0Z" fill="#c9c8c7"/><path d="M13,49a5.91772,5.91772,0,0,0-6,4H4v2H8.69092A4.80246,4.80246,0,0,1,13,50.81763Z" fill="#ba2a2a"/><polygon fill="#2d2d2d" points="54 49 53 49 43 49 43 51 55 51 55 49 54 49"/><polygon fill="#ba2a2a" points="40.5 49 38 49 13 49 13 51 43 51 43 49 40.5 49"/><path d="M22.71,51a6.186,6.186,0,0,0-1.99358,4H16.99358A6.186,6.186,0,0,0,15,51Z" fill="#2d2d2d"/><path d="M34.71,51a6.186,6.186,0,0,0-1.99358,4H28.99358A6.186,6.186,0,0,0,27,51Z" fill="#2d2d2d"/><circle cx="47" cy="57" fill="#3a3a3a" r="2"/><circle cx="55" cy="57" fill="#3a3a3a" r="2"/><path d="M56,51v4H41.69068A6.63766,6.63766,0,0,0,40,51Z" fill="#2d2d2d"/><circle cx="13" cy="55" fill="#3a3a3a" r="4"/><circle cx="25" cy="55" fill="#3a3a3a" r="4"/><circle cx="37" cy="55" fill="#3a3a3a" r="4"/><rect fill="#3a3a3a" height="4" width="4" x="49" y="37"/></g><g data-name="Layer 1" id="Layer_1"><path d="M59,52.00036H57v-1a.99942.99942,0,0,0-1-1v-5a1,1,0,0,0,0-2v-2a.99942.99942,0,0,0-1-1H54v-3c0-3.13184-1.916-9.15771-6.02051-12.50342a6.01386,6.01386,0,0,0-5.168-5.44189c-1.1875-4.67871-4.27734-6.80566-8.9873-6.20312A10.02577,10.02577,0,1,0,24,25.00036a9.1853,9.1853,0,0,0,3.25684-.57715,7.47593,7.47593,0,0,0,2.92383,3.53516,8.8406,8.8406,0,0,0,7.416,1.2373c1.43945,1.71289,4.09668,1.7998,5.23438,1.80469C45.92914,32.12365,47.447,35.569,48,37.16753v2.83282H26a.99942.99942,0,0,0-1-1H14v-2a.99942.99942,0,0,0-1-1H1a.99942.99942,0,0,0-1,1v5a.99942.99942,0,0,0,1,1,2.00261,2.00261,0,0,1,2,2v7H1a1,1,0,1,0,0,2H3v1a.99942.99942,0,0,0,1,1H8.10108a4.9987,4.9987,0,0,0,9.79987-.02.93293.93293,0,0,0,.09906.02h2.10107a4.99993,4.99993,0,0,0,9.79785,0h2.20215a4.99993,4.99993,0,0,0,9.79785,0h2.28534a2.96482,2.96482,0,0,0-.18427,1,3,3,0,1,0,6,0,2.96482,2.96482,0,0,0-.18427-1h2.36853a2.96482,2.96482,0,0,0-.18427,1,3,3,0,1,0,5-2.21973v-.78027h2a1,1,0,0,0,0-2Zm-26.89893,2H29.89893a4.95512,4.95512,0,0,0-.9245-2h4.05115A4.95512,4.95512,0,0,0,32.10108,54.00036Zm2.89893-4v-8h7v8Zm9,0v-8h2v8Zm-3.02557,2H55v2H41.89893A4.95512,4.95512,0,0,0,40.97443,52.00036Zm7.02557-2v-8h6v8ZM43.31641,29.05163A.99855.99855,0,0,0,43,29.00036c-.83691,0-3.38184,0-4.10547-1.44727a1.00274,1.00274,0,0,0-1.26562-.48145,6.77233,6.77233,0,0,1-6.32715-.76953A4.68031,4.68031,0,0,1,29,23.00036a1.00017,1.00017,0,0,0-1.459-.88818A7.45633,7.45633,0,0,1,24,23.00036a8.00019,8.00019,0,1,1,8.00586-8.89014.99963.99963,0,0,0,1.19043.87061c4.44531-.88574,6.93359.7666,7.82324,5.21582A1.00017,1.00017,0,0,0,42,21.00036a4.00552,4.00552,0,0,1,4,4,.99878.99878,0,0,0,.40039.7998c3.22406,2.41846,5.15485,7.174,5.52826,10.2002h-2.242C48.34674,32.48864,46.061,29.9663,43.31641,29.05163ZM50,38.00036h2v2H50Zm-17,4v8H26v-8Zm-9-1v9H14v-9Zm-15.89893,13H5v-9a4.00568,4.00568,0,0,0-3-3.873v-3.127H12V50.10143A5.01454,5.01454,0,0,0,8.10108,54.00036Zm4.89893,4a3,3,0,1,1,3-3A3.00328,3.00328,0,0,1,13,58.00036Zm4.90094-3.98a4.95412,4.95412,0,0,0-.92651-2.02h4.05115a4.95512,4.95512,0,0,0-.9245,2H18A.93293.93293,0,0,0,17.90094,54.02031ZM25,58.00036a3,3,0,1,1,3-3A3.00328,3.00328,0,0,1,25,58.00036Zm12,0a3,3,0,1,1,3-3A3.00328,3.00328,0,0,1,37,58.00036Zm11-1a1,1,0,1,1-1-1A1.00068,1.00068,0,0,1,48,57.00036Zm7,1a1,1,0,1,1,1-1A1.00068,1.00068,0,0,1,55,58.00036Z"/><circle cx="37" cy="55.00036" r="1"/><circle cx="25" cy="55.00036" r="1"/><circle cx="13" cy="55.00036" r="1"/></g></svg>